<?xml version="1.0" standalone="no"?>
<!DOCTYPE svg PUBLIC "-//W3C//DTD SVG 20010904//EN"
 "http://www.w3.org/TR/2001/REC-SVG-20010904/DTD/svg10.dtd">
<svg version="1.0" xmlns="http://www.w3.org/2000/svg"
 width="1024.000000pt" height="576.000000pt" viewBox="0 0 1024.000000 576.000000"
 preserveAspectRatio="xMidYMid meet">

<g transform="translate(0.000000,576.000000) scale(0.100000,-0.100000)"
fill="#000000" stroke="none">
<path d="M4210 4950 c-162 -18 -167 -19 -266 -68 -82 -41 -110 -61 -158 -113
-76 -85 -119 -172 -155 -315 -36 -141 -102 -305 -128 -319 -14 -7 44 -10 191
-12 181 -1 423 -19 518 -39 28 -6 30 -18 11 -74 -2 -8 -4 -66 -4 -128 l1 -112
-25 6 c-31 8 -66 -6 -169 -64 -75 -43 -80 -48 -112 -115 -18 -38 -38 -93 -44
-121 -12 -51 -11 -51 44 -164 56 -113 57 -113 112 -138 70 -31 191 -65 208
-58 18 7 21 1 45 -87 11 -41 23 -83 27 -93 6 -15 4 -18 -9 -13 -8 3 -17 1 -19
-5 -2 -6 -13 -13 -25 -14 -11 -2 -41 -13 -67 -24 -26 -11 -53 -20 -61 -20 -7
0 -18 -7 -25 -15 -7 -8 -16 -13 -20 -10 -17 11 -70 -18 -76 -40 -5 -19 -16
-26 -52 -34 -26 -5 -50 -7 -54 -5 -4 3 -16 0 -27 -5 -35 -19 -150 -25 -427
-20 -60 1 -110 -3 -122 -10 -15 -8 -22 -8 -22 -1 0 5 -13 10 -28 10 -15 0 -33
5 -39 11 -6 6 -17 9 -25 7 -8 -3 0 -13 22 -26 39 -24 55 -28 44 -10 -4 7 -3 8
5 4 6 -4 9 -12 6 -17 -17 -27 212 -107 385 -134 115 -18 384 -15 575 6 87 10
105 9 139 -5 21 -9 50 -15 65 -15 26 1 26 1 -4 9 -25 7 -21 8 19 6 58 -3 64
-12 65 -96 1 -30 10 -109 21 -175 12 -66 31 -188 43 -270 l23 -151 87 -143
c78 -129 130 -191 160 -191 5 0 33 -7 62 -15 l52 -16 6 -52 c4 -33 17 -66 35
-92 25 -36 34 -41 92 -51 36 -7 88 -12 116 -13 49 -1 54 2 92 43 42 45 46 58
57 171 8 82 24 159 45 225 10 30 33 114 50 185 28 112 38 138 73 184 23 30 56
66 74 80 18 14 33 32 33 39 0 6 4 12 10 12 18 0 23 -72 17 -258 -4 -134 -3
-162 3 -97 11 117 15 359 6 374 -4 6 7 20 28 31 19 12 36 27 39 34 3 7 27 23
54 35 26 13 57 31 68 41 26 24 214 72 261 67 21 -3 41 1 49 9 11 11 18 6 43
-34 17 -26 35 -59 41 -74 5 -15 24 -56 41 -92 16 -36 30 -70 30 -76 0 -5 3
-10 8 -10 4 0 13 -19 19 -42 6 -24 25 -88 42 -143 69 -221 124 -454 145 -615
11 -80 21 -119 32 -127 10 -7 19 -35 23 -70 4 -32 15 -74 23 -94 16 -36 18
-37 104 -53 138 -25 148 -24 184 29 17 25 38 61 46 80 8 19 21 35 28 35 8 0
23 11 33 24 16 19 32 25 93 31 69 7 82 12 155 61 69 47 81 59 79 82 0 15 -2
51 -2 80 -2 49 -3 52 -22 42 -16 -9 -18 -8 -14 5 4 8 2 15 -2 15 -14 -1 -44
-26 -44 -38 0 -14 -9 -19 -50 -27 -32 -6 -36 -4 -46 23 l-11 29 -112 0 c-67 0
-111 -4 -111 -10 0 -6 -4 -6 -12 0 -7 6 -53 13 -103 17 -120 9 -167 14 -171
19 -2 2 -7 66 -12 143 -7 134 1 331 17 414 1 3 6 -2 11 -10 8 -13 10 -12 10 3
0 9 5 17 10 17 6 0 10 9 10 21 0 13 -4 18 -12 13 -7 -4 -8 -3 -4 4 10 17 24
15 29 -5 4 -14 5 -13 6 3 0 12 9 25 18 28 14 6 15 9 4 15 -7 5 -10 14 -6 20 5
9 10 9 21 0 11 -9 14 -7 14 9 0 12 9 23 20 27 11 3 20 11 20 17 0 6 -7 5 -17
-3 -10 -7 1 6 24 30 24 26 44 57 48 77 3 19 10 34 15 34 6 0 10 17 10 38 0 21
3 42 7 46 4 3 8 16 10 27 2 12 12 32 23 46 11 14 20 35 20 46 0 11 3 17 7 14
7 -7 63 41 63 54 0 12 -43 -3 -72 -24 -34 -25 -42 -20 -23 16 10 21 11 27 1
27 -6 0 -17 -5 -24 -12 -15 -15 -15 -3 -1 25 9 18 9 20 -2 10 -7 -7 -32 -13
-56 -13 -41 0 -43 -1 -43 -30 0 -23 -5 -31 -25 -36 -14 -3 -34 -4 -45 -1 -11
3 -25 -2 -31 -10 -7 -8 -26 -21 -43 -30 -39 -20 -99 -71 -108 -92 -6 -14 -7
-14 -7 0 -1 9 -8 19 -16 23 -12 4 -14 0 -10 -22 3 -15 2 -21 -1 -14 -8 17 -24
5 -17 -13 3 -8 0 -15 -6 -15 -6 0 -11 -8 -11 -17 0 -23 -60 -196 -72 -208 -7
-7 -8 -3 -5 10 4 11 18 65 32 120 14 55 44 156 66 225 22 69 44 153 51 187
l11 61 41 5 c22 3 42 11 44 16 9 26 32 10 32 -21 0 -57 10 -63 97 -60 51 2 83
8 93 18 9 8 20 49 25 95 10 74 10 79 -5 59 -33 -44 -35 9 -2 80 12 25 17 30
20 18 2 -10 7 -18 12 -18 16 0 21 19 10 40 -9 16 -21 20 -61 20 -28 0 -59 4
-69 10 -15 8 -20 6 -25 -10 -5 -16 -15 -20 -55 -20 l-48 0 13 28 c15 31 55
361 56 467 1 92 -94 613 -123 673 -20 41 -373 296 -413 297 -11 1 -26 4 -32 8
-6 4 -27 9 -47 12 -20 2 -42 7 -48 11 -8 5 -9 2 -5 -10 4 -10 10 -34 13 -54 5
-35 1 -43 -68 -123 -53 -62 -95 -100 -155 -138 -80 -50 -101 -79 -73 -96 6 -4
22 -29 36 -57 40 -79 118 -181 161 -209 21 -14 61 -40 88 -59 64 -42 111 -86
141 -130 13 -19 31 -44 39 -56 31 -42 73 -242 105 -494 7 -52 19 -118 26 -147
18 -66 18 -182 0 -241 -8 -26 -24 -81 -36 -122 -33 -115 -51 -161 -63 -157 -6
2 -12 16 -14 33 -2 16 -7 32 -11 36 -4 4 -38 2 -75 -4 -37 -6 -69 -9 -72 -7
-2 3 -7 43 -11 89 -6 67 -16 106 -50 188 -45 108 -57 128 -140 233 -40 51 -67
74 -121 101 -37 20 -84 39 -103 43 -19 4 -59 19 -89 33 -87 40 -211 33 -296
-17 -24 -14 -45 -19 -61 -15 -26 7 -28 24 -4 32 8 3 10 0 5 -8 -5 -8 -4 -11 3
-6 6 4 9 12 6 19 -2 7 7 19 21 27 14 7 25 17 25 22 0 5 9 7 19 3 11 -3 22 -1
26 4 4 7 -1 9 -12 5 -11 -3 -5 6 14 23 27 24 33 39 43 103 25 166 29 222 30
378 0 106 3 161 10 157 6 -3 10 -1 10 4 0 6 -5 11 -12 11 -6 0 -4 6 7 13 10 8
15 19 11 25 -3 6 2 13 11 15 15 4 15 5 -2 6 -17 1 -18 3 -5 11 9 6 11 10 3 10
-7 0 -10 7 -6 17 4 10 2 14 -4 10 -12 -7 -176 11 -208 23 -16 6 -29 33 -54
114 -18 59 -31 113 -29 121 2 7 35 46 73 86 39 40 62 70 53 66 -12 -4 -20 4
-33 36 -30 77 -70 157 -77 157 -4 0 -19 -15 -33 -34 -18 -24 -31 -32 -45 -29
-11 3 -20 9 -20 14 0 5 -12 6 -27 3 -23 -4 -37 4 -78 44 -28 27 -61 73 -74
101 -14 28 -28 51 -33 51 -5 0 -19 11 -31 23 -15 16 -43 28 -86 36 -36 7 -99
29 -140 49 -95 45 -158 48 -391 22z m-34 -555 c13 -19 12 -27 -3 -70 -14 -37
-28 -55 -61 -76 -38 -24 -48 -26 -73 -17 -43 15 -54 49 -34 109 13 38 25 53
58 72 34 20 46 23 70 15 15 -6 35 -20 43 -33z m225 -360 c132 -51 247 -114
294 -160 95 -94 191 -225 166 -225 -5 0 -12 8 -15 18 -3 9 -4 2 -2 -15 3 -33
-8 -45 -17 -20 -3 6 -5 1 -5 -13 1 -40 -32 -143 -51 -160 -10 -9 -24 -34 -31
-55 -7 -22 -19 -44 -26 -50 -17 -12 -64 -101 -64 -119 0 -8 -11 -17 -25 -20
-16 -4 -25 -13 -25 -26 0 -11 -4 -20 -10 -20 -13 0 -60 -49 -60 -63 0 -7 -4
-6 -10 3 -8 12 -10 11 -10 -6 0 -12 -7 -24 -15 -28 -8 -3 -15 -12 -15 -19 0
-8 -13 -20 -30 -27 -16 -7 -30 -18 -30 -25 0 -14 -47 -38 -54 -27 -2 4 -9 23
-14 42 -6 19 -18 56 -26 82 l-15 47 74 39 c41 22 76 36 78 33 2 -3 2 0 0 8 -2
7 13 57 32 111 19 53 35 110 35 125 0 28 -79 196 -106 226 -8 8 -47 26 -88 39
l-73 23 -7 111 c-5 100 -3 159 9 194 7 20 40 14 136 -23z m1034 -43 c-8 -8
-25 10 -19 20 4 6 9 5 15 -3 4 -7 6 -15 4 -17z m-1295 -432 c0 -5 -5 -10 -11
-10 -5 0 -7 5 -4 10 3 6 8 10 11 10 2 0 4 -4 4 -10z m73 -25 c-3 -13 -2 -33 2
-42 5 -16 11 -13 40 20 18 20 37 37 41 37 4 0 3 -5 -4 -12 -16 -16 -16 -88 1
-89 10 0 10 -2 0 -6 -7 -2 -13 -20 -13 -38 0 -18 6 -35 13 -38 6 -2 9 -8 5
-12 -10 -11 -28 4 -28 25 0 10 -6 21 -12 24 -10 5 -10 7 0 12 13 6 17 66 5 77
-3 4 -17 -3 -30 -15 -27 -25 -32 -85 -8 -90 13 -2 12 -6 -5 -16 -18 -11 -20
-10 -20 16 0 38 -9 46 -32 25 -10 -9 -18 -30 -18 -50 0 -32 12 -43 25 -23 12
19 35 10 34 -12 0 -13 -3 -17 -6 -10 -7 18 -24 15 -48 -8 l-22 -21 -1 32 c-1
41 -6 45 -39 25 -25 -15 -25 -14 5 12 23 21 32 37 32 60 0 18 -3 32 -7 32 -16
0 -51 -43 -46 -56 4 -10 0 -12 -11 -8 -18 7 -22 24 -6 24 6 0 10 17 10 38 1
31 2 34 11 19 10 -18 12 -18 35 4 13 12 24 28 24 36 0 7 3 12 8 11 13 -4 52
26 52 40 0 7 4 11 9 8 4 -3 6 -17 4 -31z m-108 5 c-3 -5 -12 -10 -18 -10 -7 0
-6 4 3 10 19 12 23 12 15 0z m234 -72 c0 -13 -3 -17 -6 -10 -2 6 -10 9 -16 5
-7 -4 -6 1 2 10 18 22 21 21 20 -5z m-428 -43 c1 -17 -18 -17 -25 0 -4 11 -1
15 10 13 8 -2 15 -7 15 -13z m420 -38 c-13 -12 -20 -15 -16 -7 14 26 28 41 33
35 3 -3 -5 -16 -17 -28z m-55 -59 c-1 -13 -5 -21 -7 -18 -3 3 -17 -3 -32 -13
-34 -22 -34 -16 1 21 33 36 43 39 38 10z m959 -167 c-11 -10 -31 -22 -45 -26
-22 -7 -23 -6 -11 8 7 9 17 15 21 12 4 -3 13 2 20 10 7 8 17 15 23 15 6 0 3
-9 -8 -19z m1431 -125 c8 -32 -5 -55 -18 -32 -5 9 -14 13 -20 10 -7 -5 -9 -1
-5 9 3 10 2 17 -3 17 -6 0 -10 -6 -10 -13 0 -8 -9 -22 -21 -32 -20 -19 -20
-19 -9 10 16 42 29 55 56 55 17 0 25 -7 30 -24z m-136 -156 c4 -14 3 -33 -2
-42 -11 -22 -56 -24 -64 -3 -4 8 -15 15 -25 15 -12 0 -19 7 -19 19 0 14 11 22
38 29 52 14 65 11 72 -18z m-1947 -312 c16 -101 39 -181 67 -241 36 -75 100
-153 139 -170 15 -6 94 -11 191 -12 l165 0 104 -53 c74 -37 115 -52 145 -52
67 0 69 -7 39 -86 -28 -71 -46 -98 -57 -87 -3 4 -6 -1 -6 -10 0 -9 -13 -26
-30 -38 -16 -12 -33 -34 -39 -49 -16 -48 -68 -96 -148 -136 -78 -39 -79 -39
-190 -38 -61 1 -122 4 -135 7 -15 5 -52 49 -111 137 l-88 130 -19 133 c-10 72
-18 150 -19 172 0 22 -7 94 -15 161 -16 121 -19 264 -5 264 4 0 9 -15 12 -32z
m1994 -735 c-3 -10 -5 -4 -5 12 0 17 2 24 5 18 2 -7 2 -21 0 -30z m20 15 c-3
-8 -6 -5 -6 6 -1 11 2 17 5 13 3 -3 4 -12 1 -19z m-10 -70 c-3 -8 -6 -5 -6 6
-1 11 2 17 5 13 3 -3 4 -12 1 -19z m21 -88 c-3 -44 -2 -81 1 -82 4 -2 4 -16 1
-33 l-6 -30 -14 43 c-7 23 -17 42 -22 42 -4 0 -8 5 -8 10 0 6 6 10 14 10 23 0
26 13 14 59 -9 35 -8 45 3 52 8 5 16 9 18 9 2 0 1 -36 -1 -80z m-61 -42 c-3
-7 -5 -2 -5 12 0 14 2 19 5 13 2 -7 2 -19 0 -25z m8 -38 c11 18 25 -7 25 -45
0 -23 -3 -26 -10 -15 -5 8 -7 24 -3 35 5 17 4 18 -11 6 -9 -7 -16 -11 -16 -8
0 3 -3 14 -6 24 -4 13 -3 15 4 4 7 -10 11 -10 17 -1z m778 -136 c4 -4 3 -12 0
-18 -4 -6 -8 -16 -9 -23 -5 -33 -27 -83 -36 -83 -15 0 -1 112 15 122 15 9 22
10 30 2z"/>
<path d="M4313 4019 c-18 -18 -3 -39 27 -39 15 0 30 6 33 14 7 17 -11 36 -33
36 -9 0 -21 -5 -27 -11z"/>
<path d="M4169 3512 c-23 -27 -27 -45 -18 -70 8 -21 9 -22 29 -5 12 11 20 30
20 50 0 39 -11 48 -31 25z"/>
<path d="M5266 4659 c27 -34 65 -80 84 -101 l35 -39 73 36 c61 31 96 40 200
55 97 14 115 18 77 20 -69 2 -90 5 -165 23 -64 15 -84 21 -125 37 -11 4 -31
12 -45 17 -14 6 -60 11 -104 12 l-78 2 48 -62z"/>
<path d="M3253 4327 c-34 -33 -65 -112 -61 -155 5 -55 29 -48 43 13 13 57 36
105 59 125 12 10 14 16 5 26 -15 18 -20 17 -46 -9z"/>
<path d="M3448 4113 c7 -3 16 -2 19 1 4 3 -2 6 -13 5 -11 0 -14 -3 -6 -6z"/>
<path d="M5638 4103 c7 -3 16 -2 19 1 4 3 -2 6 -13 5 -11 0 -14 -3 -6 -6z"/>
<path d="M5580 4090 c-9 -6 -10 -10 -3 -10 6 0 15 5 18 10 8 12 4 12 -15 0z"/>
<path d="M5545 4060 c-3 -5 -2 -10 4 -10 5 0 13 5 16 10 3 6 2 10 -4 10 -5 0
-13 -4 -16 -10z"/>
<path d="M4130 4049 c-22 -9 -23 -11 -8 -20 20 -11 62 6 53 22 -7 11 -13 11
-45 -2z"/>
<path d="M5518 4033 c6 -2 18 -2 25 0 6 3 1 5 -13 5 -14 0 -19 -2 -12 -5z"/>
<path d="M5275 3240 c-3 -5 -1 -10 4 -10 6 0 11 5 11 10 0 6 -2 10 -4 10 -3 0
-8 -4 -11 -10z"/>
<path d="M2812 3150 c0 -14 2 -19 5 -12 2 6 2 18 0 25 -3 6 -5 1 -5 -13z"/>
<path d="M6994 2875 c-7 -30 3 -124 16 -145 7 -10 10 14 10 72 0 85 -13 123
-26 73z"/>
<path d="M3145 2780 c3 -5 16 -15 28 -21 22 -12 22 -12 3 10 -19 21 -43 30
-31 11z"/>
<path d="M4298 2563 c7 -3 16 -2 19 1 4 3 -2 6 -13 5 -11 0 -14 -3 -6 -6z"/>
<path d="M3886 2363 c-6 -14 -5 -15 5 -6 7 7 10 15 7 18 -3 3 -9 -2 -12 -12z"/>
<path d="M6872 2335 c0 -16 2 -22 5 -12 2 9 2 23 0 30 -3 6 -5 -1 -5 -18z"/>
<path d="M6840 2300 c0 -5 5 -10 10 -10 6 0 10 5 10 10 0 6 -4 10 -10 10 -5 0
-10 -4 -10 -10z"/>
<path d="M3831 2194 c0 -11 3 -14 6 -6 3 7 2 16 -1 19 -3 4 -6 -2 -5 -13z"/>
<path d="M3822 2140 c0 -19 2 -27 5 -17 2 9 2 25 0 35 -3 9 -5 1 -5 -18z"/>
<path d="M3812 2070 c0 -14 2 -19 5 -12 2 6 2 18 0 25 -3 6 -5 1 -5 -13z"/>
<path d="M3792 1850 c0 -14 2 -19 5 -12 2 6 2 18 0 25 -3 6 -5 1 -5 -13z"/>
<path d="M4425 1764 c14 -20 26 -42 26 -48 1 -6 3 -20 4 -31 1 -12 7 -36 13
-55 6 -19 12 -52 14 -72 1 -21 5 -38 9 -38 13 0 2 -93 -16 -137 -16 -39 -20
-43 -68 -52 -245 -46 -583 -33 -724 28 -40 17 -74 31 -77 31 -4 0 -6 -37 -6
-83 l0 -83 53 -31 c28 -17 80 -43 113 -58 64 -28 74 -43 74 -109 0 -12 19 -43
43 -69 36 -41 52 -50 116 -68 53 -15 95 -20 145 -17 67 3 75 6 129 48 47 36
65 58 89 111 l29 66 87 33 c48 18 108 46 135 62 45 29 47 32 47 77 0 77 -12
181 -21 176 -12 -8 -19 10 -21 55 -1 25 -4 36 -9 28 -5 -7 -6 -20 -4 -28 2 -8
1 -21 -4 -29 -6 -9 -10 -4 -13 18 -2 17 -1 32 2 33 4 2 10 28 13 58 l7 55 -82
65 c-44 36 -90 73 -101 83 -29 25 -29 21 -2 -19z m-468 -480 c-3 -3 -12 -4
-19 -1 -8 3 -5 6 6 6 11 1 17 -2 13 -5z m-103 -14 c39 -15 31 -30 -16 -30 -23
0 -38 3 -35 7 4 3 2 12 -4 20 -9 10 -7 13 9 13 11 0 32 -4 46 -10z"/>
<path d="M5663 1700 c0 -36 2 -50 4 -32 2 17 2 47 0 65 -2 17 -4 3 -4 -33z"/>
<path d="M5652 1570 c0 -19 2 -27 5 -17 2 9 2 25 0 35 -3 9 -5 1 -5 -18z"/>
<path d="M3812 1378 c6 -18 28 -21 28 -4 0 9 -7 16 -16 16 -9 0 -14 -5 -12
-12z"/>
<path d="M5652 1275 c0 -16 2 -22 5 -12 2 9 2 23 0 30 -3 6 -5 -1 -5 -18z"/>
<path d="M5661 1113 c0 -46 2 -83 7 -83 4 0 6 26 4 57 -5 101 -9 111 -11 26z"/>
<path d="M5311 1070 c-2 -182 44 -244 229 -313 52 -20 102 -38 111 -42 12 -4
18 -25 23 -75 8 -77 44 -156 80 -171 37 -15 183 -49 214 -49 70 0 93 12 143
74 27 34 54 77 60 96 17 53 64 78 160 86 71 6 84 11 131 45 28 22 80 58 115
80 l63 41 0 91 c0 50 -2 88 -4 86 -5 -4 -14 -51 -15 -77 -1 -7 -5 -11 -10 -8
-9 6 -26 -40 -22 -62 1 -8 -7 -16 -18 -19 -12 -3 -21 -9 -21 -14 0 -5 -4 -9
-10 -9 -15 0 -12 72 5 119 8 23 12 48 9 55 -3 8 0 17 7 22 9 5 10 2 6 -9 -5
-15 -3 -14 28 1 19 9 35 20 35 25 0 10 -18 9 -25 -3 -3 -5 -11 -10 -17 -10 -7
0 -7 4 1 13 6 8 8 16 5 19 -8 8 -69 -33 -83 -55 -11 -17 -10 -18 11 -12 17 5
15 1 -10 -16 -27 -17 -69 -26 -216 -44 -195 -24 -367 -25 -536 -4 -115 15
-399 114 -410 143 -37 98 -38 98 -39 -4z m404 -157 l50 -7 -50 -11 -50 -12 33
-7 c18 -4 30 -12 26 -17 -7 -13 -41 -7 -86 15 -38 18 -42 35 -10 37 14 0 13 2
-3 10 -16 7 -14 8 10 4 17 -2 53 -8 80 -12z m865 -77 c0 -3 -4 -8 -10 -11 -5
-3 -10 -1 -10 4 0 6 5 11 10 11 6 0 10 -2 10 -4z"/>
<path d="M5668 903 c7 -3 16 -2 19 1 4 3 -2 6 -13 5 -11 0 -14 -3 -6 -6z"/>
<path d="M5617 1044 c-8 -8 3 -34 14 -34 11 0 12 27 0 34 -4 3 -11 3 -14 0z"/>
<path d="M5662 990 c1 -16 5 -30 10 -30 4 0 8 14 8 30 0 17 -4 30 -9 30 -5 0
-9 -13 -9 -30z"/>
<path d="M5700 1011 c0 -14 28 -33 39 -27 16 10 1 36 -20 36 -10 0 -19 -4 -19
-9z"/>
</g>
</svg>
